<svg xmlns="http://www.w3.org/2000/svg" viewBox="0 0 800 520">
  <rect width="800" height="520" fill="#f4f1e8"/>
  <g stroke="#24363b" stroke-width="9" fill="none">
    <path d="M150 70H650V450H150Z"/>
    <path d="M150 70H330M410 70H650"/>
    <path d="M650 70V185M650 265V450"/>
    <path d="M150 450H350M430 450H650"/>
  </g>
  <g stroke="#db7955" stroke-width="4" fill="none">
    <path d="M330 70v-30M410 70v-30M330 40h80"/>
    <path d="M650 185h30M650 265h30M680 185v80"/>
    <path d="M350 450v30M430 450v30M350 480h80"/>
  </g>
  <g stroke="#5e99a6" stroke-width="4" fill="#d5e5e1">
    <ellipse cx="245" cy="205" rx="54" ry="70"/>
    <rect x="390" y="105" width="105" height="70" rx="8"/>
    <rect x="500" y="270" width="110" height="120" rx="8"/>
    <circle cx="555" cy="330" r="25"/>
  </g>
  <g fill="#3e5b60" font-family="sans-serif" text-anchor="middle">
    <text x="400" y="240" font-size="28">BAÑO PRINCIPAL</text>
    <text x="400" y="280" font-size="20">2,40 × 2,20 m</text>
    <text x="245" y="210" font-size="15">INODORO</text>
    <text x="442" y="146" font-size="15">LAVATORIO</text>
    <text x="555" y="335" font-size="15">DUCHA</text>
    <text x="370" y="27" font-size="17">VENTANA 0,80 × 0,60 m</text>
    <text x="370" y="510" font-size="17">PUERTA 0,80 × 2,10 m</text>
  </g>
  <g fill="#db7955" font-family="monospace" font-size="19" text-anchor="middle">
    <text x="400" y="62">2,40 m</text>
    <text x="108" y="270" transform="rotate(-90 108 270)">2,20 m</text>
  </g>
</svg>
